<svg width="24" height="24" viewBox="0 0 24 24" fill="none" xmlns="http://www.w3.org/2000/svg">
<g id="SVGRepo_bgCarrier" stroke-width="0"></g>
<g id="SVGRepo_tracerCarrier" stroke-linecap="round" stroke-linejoin="round"></g>
<g id="SVGRepo_iconCarrier">
<path d="M20.317 4.369A19.791 19.791 0 0 0 16.885 3.1a.074.074 0 0 0-.079.037c-.34.607-.719 1.396-.984 2.013a18.524 18.524 0 0 0-5.59 0 12.51 12.51 0 0 0-.997-2.013A.077.077 0 0 0 9.14 3.1a19.736 19.736 0 0 0-3.432 1.27.069.069 0 0 0-.032.027C2.533 7.159 1.68 9.885 2.013 12.566a.08.08 0 0 0 .03.056c1.453 1.07 2.86 1.723 4.242 2.155a.077.077 0 0 0 .084-.027c.326-.448.617-.92.868-1.416a.076.076 0 0 0-.041-.104c-.462-.175-.9-.388-1.32-.629a.077.077 0 0 1-.008-.127c.089-.067.178-.137.263-.207a.074.074 0 0 1 .077-.01c2.78 1.27 5.787 1.27 8.545 0a.073.073 0 0 1 .078.009c.086.07.175.14.264.207a.077.077 0 0 1-.007.127 7.12 7.12 0 0 1-1.321.629.076.076 0 0 0-.04.105c.253.495.544.967.868 1.415a.076.076 0 0 0 .084.028c1.382-.432 2.79-1.085 4.243-2.155a.077.077 0 0 0 .03-.055c.38-3.03-.637-5.725-2.61-8.44a.061.061 0 0 0-.031-.028ZM8.02 13.331c-.845 0-1.538-.773-1.538-1.723 0-.95.682-1.723 1.538-1.723.87 0 1.55.786 1.538 1.723 0 .95-.682 1.723-1.538 1.723Zm7.96 0c-.845 0-1.538-.773-1.538-1.723 0-.95.682-1.723 1.538-1.723.87 0 1.55.786 1.538 1.723 0 .95-.668 1.723-1.538 1.723Z" fill="#5865F2"></path>
</g>
</svg>
